Offender 2012 BRRip 480p 350MB x264 AAC - VYTO [P2PDL]

					
Genre: Thriller
Plot: Justice needs to be served at Britain's most notorious young offenders institute.  
Director: Ron Scalpello
Stars: Joe Cole, English Frank and Kimberley Nixon.
Rated: N/a 
http://cinemahouse.in/movie/214/Offender 
http://www.imdb.com/title/tt1821427/

General
Movie name                     : Offender 2012
Format                         : MPEG-4
Format profile                 : Base Media
Codec ID                       : isom
File size                      : 351 MiB
Duration                       : 1h 41mn
Overall bit rate mode          : Variable
Overall bit rate               : 483 Kbps
Source                         : 720p.BluRay.x264-SONiDO(Thanks)

Video
ID                             : 1
Format                         : AVC
Format/Info                    : Advanced Video Codec
Duration                       : 1h 41mn
Bit rate                       : 424 Kbps
Width                          : 640 pixels
Height                         : 352 pixels
Display aspect ratio           : 16:9
Frame rate mode                : Constant
Frame rate                     : 23.976 fps
Stream size                    : 308 MiB (88%)
Writing library                : x264 core 129 r2230

Audio
ID                             : 2
Format                         : AAC
Format/Info                    : Advanced Audio Codec
Format profile                 : HE-AAC / LC
Codec ID                       : 40
Duration                       : 1h 41mn
Bit rate mode                  : Variable
Bit rate                       : 56.0 Kbps
Maximum bit rate               : 63.0 Kbps
Channel(s)                     : 2 channels
Channel positions              : Front: L R
Sampling rate                  : 44.1 KHz / 22.05 KHz
Language                       : English
Stream size                    : 40.8 MiB (12%)


Subtitle                       : Yes(English)


Screens:
 
http://www.shotpix.com/images/33030886447026527538.png 
http://www.shotpix.com/images/67940004511776237898.png 
http://www.shotpix.com/images/69277939952383640700.png 
http://www.shotpix.com/images/66564204413837126737.png 
http://www.shotpix.com/images/70575468501013018763.png 
http://www.shotpix.com/images/24235979826157942401.png


----------------------------------------------------------------------------------------------------


Recommend to you to use latest version of VLC player. Install K-Lite Codec Pack or shark007 codecs
in case of any kind of problem in playback (For non-VLC Media Player users). Alternatively, install
Core AVC codecs, the fastest decoder that there is coupled with Community Center Codec Pack and play
on Windows Media Player Classic. Check sample to be sure.
Enjoy!

Greets to: Vitamin_X, a2zRG, srkfan, MgB, Stumpie1971, Sheychi and staff members at ExtraTorrent, TPB,KAT, 1337x, PublicHD, Ahashare, BTScene, SilverTorrent, LimeTorrents, TorrentMafia, P2PDL, and all
others.

Encoder Notes: Looking For Early Access To Anything You Can Provide DVDScr, R5, DVDR, BluRay, Direct
Audio, Early Music Releases, Seedboxes, Dedicated Servers anything u can provide, Advance / Promo CDs/
DVDs. If You Got anything to offer contact me at "prg@hush.com".

Facebook Fan Page: www . facebook . com / p2pdl